<svg xmlns="http://www.w3.org/2000/svg" width="22.141" height="22.141" viewBox="0 0 22.141 22.141"><g transform="translate(-1 -1)"><g transform="translate(1.5 1.5)"><path d="M7.845,13.211A2.118,2.118,0,0,0,5.933,12H3.114A2.114,2.114,0,0,0,1,14.114v3.523H2.409V22.57H6.637" transform="translate(-1 -4.248)" fill="none" stroke="#00b9ff" stroke-linecap="round" stroke-linejoin="round" stroke-miterlimit="10" stroke-width="1"/><circle cx="2.114" cy="2.114" r="2.114" transform="translate(1.409 1.409)" fill="none" stroke="#00b9ff" stroke-linecap="round" stroke-linejoin="round" stroke-miterlimit="10" stroke-width="1"/><path d="M21.287,13.211A2.118,2.118,0,0,1,23.2,12h2.819a2.114,2.114,0,0,1,2.114,2.114v3.523H26.722V22.57H22.494" transform="translate(-6.991 -4.248)" fill="none" stroke="#00b9ff" stroke-linecap="round" stroke-linejoin="round" stroke-miterlimit="10" stroke-width="1"/><circle cx="2.114" cy="2.114" r="2.114" transform="translate(15.503 1.409)" fill="none" stroke="#00b9ff" stroke-linecap="round" stroke-linejoin="round" stroke-miterlimit="10" stroke-width="1"/><path d="M16.342,25.389H12.114V19.752H10V14.819A2.819,2.819,0,0,1,12.819,12h2.819a2.819,2.819,0,0,1,2.819,2.819v4.933H16.342Z" transform="translate(-3.658 -4.248)" fill="none" stroke="#fff" stroke-linecap="round" stroke-linejoin="round" stroke-miterlimit="10" stroke-width="1"/><circle cx="2.819" cy="2.819" r="2.819" transform="translate(7.752 0)" fill="none" stroke="#fff" stroke-linecap="round" stroke-linejoin="round" stroke-miterlimit="10" stroke-width="1"/></g></g></svg>