<svg xmlns="http://www.w3.org/2000/svg" width="20.693" height="20.693" viewBox="0 0 20.693 20.693"><g transform="translate(-1.5 -1.5)"><g transform="translate(2 2)"><circle cx="2.626" cy="2.626" r="2.626" transform="translate(7.221 7.221)" fill="none" stroke="#00b9ff" stroke-linecap="round" stroke-linejoin="round" stroke-miterlimit="10" stroke-width="1"/><path d="M21.693,13.16V10.534l-2.821-.353a7.163,7.163,0,0,0-.88-2.125l1.745-2.244L17.881,3.956,15.637,5.7a7.188,7.188,0,0,0-2.125-.88L13.16,2H10.534l-.353,2.821a7.163,7.163,0,0,0-2.125.88L5.813,3.956,3.956,5.813,5.7,8.056a7.188,7.188,0,0,0-.88,2.125L2,10.534V13.16l2.821.353a7.163,7.163,0,0,0,.88,2.125L3.956,17.881l1.857,1.857,2.244-1.745a7.188,7.188,0,0,0,2.125.88l.353,2.821H13.16l.353-2.821a7.163,7.163,0,0,0,2.125-.88l2.244,1.745,1.857-1.857-1.745-2.244a7.188,7.188,0,0,0,.88-2.125Z" transform="translate(-2 -2)" fill="none" stroke="#f0f0f7" stroke-linecap="round" stroke-linejoin="round" stroke-miterlimit="10" stroke-width="1"/></g></g></svg>