<svg xmlns="http://www.w3.org/2000/svg" width="23.292" height="24.885" viewBox="0 0 23.292 24.885"><g transform="translate(-1.5 -0.5)"><g transform="translate(2 1)"><path d="M24.292,25.448A3.175,3.175,0,0,0,22.2,22.455,26.7,26.7,0,0,0,13.146,21a26.7,26.7,0,0,0-9.053,1.455A3.175,3.175,0,0,0,2,25.448v3.513H24.292Z" transform="translate(-2 -5.077)" fill="none" stroke="#00b9ff" stroke-linecap="round" stroke-linejoin="round" stroke-miterlimit="10" stroke-width="1"/><path d="M14.573,13.739h0A5.573,5.573,0,0,1,9,8.165V6.573A5.573,5.573,0,0,1,14.573,1h0a5.573,5.573,0,0,1,5.573,5.573V8.165A5.573,5.573,0,0,1,14.573,13.739Z" transform="translate(-3.427 -1)" fill="none" stroke="#fff" stroke-linecap="round" stroke-linejoin="round" stroke-miterlimit="10" stroke-width="1"/></g></g></svg>