<svg xmlns="http://www.w3.org/2000/svg" width="90.459" height="90.459" viewBox="0 0 90.459 90.459"><g transform="translate(-1 -1)"><g transform="translate(2 2)"><path d="M30.641,29.07a8.863,8.863,0,0,0-8-5.07H10.846A8.845,8.845,0,0,0,2,32.846V44.64l5.9,2.949,1.474,20.64H25.589" transform="translate(-2 8.435)" fill="none" stroke="#00b9ff" stroke-linecap="round" stroke-linejoin="round" stroke-miterlimit="10" stroke-width="2"/><circle cx="8.846" cy="8.846" r="8.846" transform="translate(5.897 5.897)" fill="none" stroke="#00b9ff" stroke-linecap="round" stroke-linejoin="round" stroke-miterlimit="10" stroke-width="2"/><path d="M42.573,29.07a8.863,8.863,0,0,1,8-5.07H62.369a8.845,8.845,0,0,1,8.846,8.846V44.64l-5.9,2.949-1.474,20.64H47.625" transform="translate(17.244 8.435)" fill="none" stroke="#00b9ff" stroke-linecap="round" stroke-linejoin="round" stroke-miterlimit="10" stroke-width="2"/><circle cx="8.846" cy="8.846" r="8.846" transform="translate(64.87 5.897)" fill="none" stroke="#00b9ff" stroke-linecap="round" stroke-linejoin="round" stroke-miterlimit="10" stroke-width="2"/><path d="M46.538,80.024H28.846L27.372,56.435,20,54.96V35.794A11.8,11.8,0,0,1,31.794,24H43.589A11.8,11.8,0,0,1,55.383,35.794V54.96l-7.372,1.474Z" transform="translate(6.538 8.435)" fill="none" stroke="#353535" stroke-linecap="round" stroke-linejoin="round" stroke-miterlimit="10" stroke-width="2"/><circle cx="11.794" cy="11.794" r="11.794" transform="translate(32.435)" fill="none" stroke="#353535" stroke-linecap="round" stroke-linejoin="round" stroke-miterlimit="10" stroke-width="2"/></g></g></svg>