<svg xmlns="http://www.w3.org/2000/svg" width="68.153" height="68.153" viewBox="0 0 68.153 68.153"><g transform="translate(-1 -1)"><g transform="translate(2 2)"><circle cx="8.82" cy="8.82" r="8.82" transform="translate(24.256 24.256)" fill="none" stroke="#00b9ff" stroke-linecap="round" stroke-linejoin="round" stroke-miterlimit="10" stroke-width="2"/><path d="M68.153,39.487v-8.82l-9.476-1.184a24.063,24.063,0,0,0-2.956-7.138l5.862-7.537L55.346,8.57l-7.537,5.862a24.145,24.145,0,0,0-7.138-2.956L39.487,2h-8.82l-1.184,9.476a24.063,24.063,0,0,0-7.138,2.956L14.807,8.57,8.57,14.807l5.862,7.537a24.145,24.145,0,0,0-2.956,7.138L2,30.666v8.82l9.476,1.184a24.063,24.063,0,0,0,2.956,7.138L8.57,55.346l6.237,6.237,7.537-5.862a24.145,24.145,0,0,0,7.138,2.956l1.184,9.476h8.82l1.184-9.476a24.063,24.063,0,0,0,7.138-2.956l7.537,5.862,6.237-6.237-5.862-7.537a24.145,24.145,0,0,0,2.956-7.138Z" transform="translate(-2 -2)" fill="none" stroke="#353535" stroke-linecap="round" stroke-linejoin="round" stroke-miterlimit="10" stroke-width="2"/></g></g></svg>