<svg xmlns="http://www.w3.org/2000/svg" width="78.991" height="83.264" viewBox="0 0 78.991 83.264"><g transform="translate(1 1)"><g transform="translate(0 0)"><path d="M80.991,57.134a10.817,10.817,0,0,0-7.229-10.185A93.433,93.433,0,0,0,42.5,42a93.433,93.433,0,0,0-31.266,4.949A10.816,10.816,0,0,0,4,57.134V69.088H80.991Z" transform="translate(-4 12.176)" fill="none" stroke="#00b9ff" stroke-linecap="round" stroke-linejoin="round" stroke-miterlimit="10" stroke-width="2"/><path d="M37.248,45.341h0A19.106,19.106,0,0,1,18,26.379V20.962A19.106,19.106,0,0,1,37.248,2h0A19.106,19.106,0,0,1,56.5,20.962v5.418A19.106,19.106,0,0,1,37.248,45.341Z" transform="translate(1.248 -2)" fill="none" stroke="#353535" stroke-linecap="round" stroke-linejoin="round" stroke-miterlimit="10" stroke-width="2"/></g></g></svg>