<svg xmlns="http://www.w3.org/2000/svg" viewBox="0 0 1055 428.75"><defs><style>.cls-1{fill:#e8e8e8;}.cls-2{fill:#485a71;}.cls-3,.cls-5{fill:#00b9ff;}.cls-4{fill:none;stroke:#3f3d56;}.cls-4,.cls-5{stroke-miterlimit:10;}.cls-5{stroke:#00b9ff;stroke-width:10px;}</style></defs><title>403</title><g id="Layer_2" data-name="Layer 2"><g id="fd59ce54-f850-4dfc-bc34-dd7d379d600e"><ellipse class="cls-1" cx="527.5" cy="393.83" rx="527.5" ry="34.92"/><path class="cls-2" d="M507.28,11.53c-85.94,0-147.65,55.14-147.65,183.8,0,145.81,61.71,184.41,147.65,184.41s151.33-42.28,151.33-184.41C658.61,43.39,593.23,11.53,507.28,11.53Zm.57,319.81c-59.53,0-90.63-34.93-90.63-135.92,0-89.11,32.37-136.1,91.9-136.1S601,90.18,601,195.42C601,293.87,567.37,331.34,507.85,331.34Z"/><path class="cls-3" d="M308.17,278H272.63V173.4a21,21,0,0,0-20.95-21h-8.33a21,21,0,0,0-20.95,21h0V278H122.17a12,12,0,0,1-10.58-17.55L217.67,59.7a21,21,0,0,0-8.74-28.32l-.84-.42L201.83,28a21,21,0,0,0-27.43,9.07L45,279.11a28.33,28.33,0,0,0-3.36,13.4h0a28.41,28.41,0,0,0,28.42,28.41H222.4v66.17a25.12,25.12,0,0,0,25.11,25.12h0a25.12,25.12,0,0,0,25.12-25.12h0V320.92h35.54a21.44,21.44,0,0,0,21.44-21.44h0A21.45,21.45,0,0,0,308.17,278Z"/><path class="cls-4" d="M526.89.5C440.94.5,379.24,55.64,379.24,184.3c0,145.81,61.7,184.41,147.65,184.41S678.21,326.43,678.21,184.3C678.21,32.36,612.83.5,526.89.5Zm.56,319.81c-59.52,0-90.62-34.92-90.62-135.92,0-89.11,32.37-136.1,91.9-136.1s91.89,30.87,91.89,136.1c0,98.45-33.64,135.92-93.17,135.92Z"/><path class="cls-4" d="M318,265.78H282.44V161.14a21,21,0,0,0-21-20.95h-8.33a21,21,0,0,0-21,20.95h0V265.78H132a12,12,0,0,1-10.58-17.55L227.47,47.45a21,21,0,0,0-8.74-28.32q-.4-.22-.84-.42l-6.26-3a21,21,0,0,0-27.43,9.07l-129.38,242a28.44,28.44,0,0,0-3.36,13.39h0a28.42,28.42,0,0,0,28.42,28.42H232.2v66.17A25.11,25.11,0,0,0,257.32,400h0a25.12,25.12,0,0,0,25.12-25.11h0V308.67H318a21.44,21.44,0,0,0,21.44-21.45h0A21.44,21.44,0,0,0,318,265.78Z"/><path class="cls-5" d="M805.19,203.38a9.56,9.56,0,0,1,9.56-9.56h25.74q33.25-.51,52.3-17.52t19-46q0-65-64.74-65-30.48,0-48.63,17.39-15.33,14.7-17.71,37.45a9.58,9.58,0,0,1-9.51,8.63H743.33a9.53,9.53,0,0,1-9.53-10.34q3.41-37.08,31.66-62.66,32.12-29.07,81.63-29.07,52.3,0,82,27.68t29.71,76.93q0,24.13-15.62,46.72A91.72,91.72,0,0,1,917.63,203a9.43,9.43,0,0,0,.87,16.25,85,85,0,0,1,29.26,24.64q16.63,22.35,16.63,54.59,0,49.77-32.5,79t-84.55,29.2q-52.05,0-84.68-28.19-28.89-25-32.2-64.07A9.55,9.55,0,0,1,740,304H768.2a9.56,9.56,0,0,1,9.5,8.6q2.46,23.25,18.61,38.12,19,17.52,51,17.52,34,0,52-17.78t18-51q0-32.25-19.81-49.51t-57.12-17.78H814.75a9.56,9.56,0,0,1-9.56-9.55Z"/><path class="cls-4" d="M814.19,187.38a9.56,9.56,0,0,1,9.56-9.56h25.74q33.25-.51,52.3-17.52t19-46q0-65-64.74-65-30.48,0-48.63,17.39-15.33,14.7-17.71,37.45a9.58,9.58,0,0,1-9.51,8.63H752.33a9.53,9.53,0,0,1-9.53-10.34q3.41-37.08,31.66-62.66,32.12-29.07,81.63-29.07,52.3,0,82,27.68t29.71,76.93q0,24.13-15.62,46.72A91.72,91.72,0,0,1,926.63,187a9.43,9.43,0,0,0,.87,16.25,85,85,0,0,1,29.26,24.64q16.63,22.35,16.63,54.59,0,49.77-32.5,79t-84.55,29.2q-52.05,0-84.68-28.19-28.89-25-32.2-64.07A9.55,9.55,0,0,1,749,288H777.2a9.56,9.56,0,0,1,9.5,8.6q2.46,23.25,18.61,38.12,19,17.52,51,17.52,34,0,52-17.78t18-51q0-32.25-19.81-49.51t-57.12-17.78H823.75a9.56,9.56,0,0,1-9.56-9.55Z"/></g></g></svg>