<svg xmlns="http://www.w3.org/2000/svg" viewBox="0 0 1055 428.75"><defs><style>.cls-1{fill:#e8e8e8;}.cls-2{fill:#485a71;}.cls-3{fill:#00b9ff;}.cls-4{fill:none;stroke:#3f3d56;stroke-miterlimit:10;}</style></defs><title>page_not_found_5</title><g id="Layer_2" data-name="Layer 2"><g id="fd59ce54-f850-4dfc-bc34-dd7d379d600e"><ellipse class="cls-1" cx="527.5" cy="393.83" rx="527.5" ry="34.92"/><path class="cls-2" d="M507.28,11.53c-85.94,0-147.65,55.14-147.65,183.8,0,145.81,61.71,184.41,147.65,184.41s151.33-42.28,151.33-184.41C658.61,43.39,593.23,11.53,507.28,11.53Zm.57,319.81c-59.53,0-90.63-34.93-90.63-135.92,0-89.11,32.37-136.1,91.9-136.1S601,90.18,601,195.42C601,293.87,567.37,331.34,507.85,331.34Z"/><path class="cls-3" d="M308.17,278H272.63V173.4a21,21,0,0,0-20.95-21h-8.33a21,21,0,0,0-20.95,21h0V278H122.17a12,12,0,0,1-10.58-17.55L217.67,59.7a21,21,0,0,0-8.74-28.32l-.84-.42L201.83,28a21,21,0,0,0-27.43,9.07L45,279.11a28.33,28.33,0,0,0-3.36,13.4h0a28.41,28.41,0,0,0,28.42,28.41H222.4v66.17a25.12,25.12,0,0,0,25.11,25.12h0a25.12,25.12,0,0,0,25.12-25.12h0V320.92h35.54a21.44,21.44,0,0,0,21.44-21.44h0A21.45,21.45,0,0,0,308.17,278Z"/><path class="cls-3" d="M966.16,278H930.63V173.4a21,21,0,0,0-21-21h-8.32a21,21,0,0,0-21,21h0V278H780.16a12,12,0,0,1-10.58-17.55L875.67,59.7a21,21,0,0,0-8.74-28.32l-.84-.42L859.82,28a21,21,0,0,0-27.43,9.07L703,279.11a28.44,28.44,0,0,0-3.35,13.4h0a28.41,28.41,0,0,0,28.41,28.41H880.39v66.17a25.12,25.12,0,0,0,25.12,25.12h0a25.12,25.12,0,0,0,25.12-25.12h0V320.92h35.53a21.44,21.44,0,0,0,21.45-21.44h0A21.45,21.45,0,0,0,966.16,278Z"/><path class="cls-4" d="M318,265.78H282.44V161.14a21,21,0,0,0-21-20.95h-8.33a21,21,0,0,0-21,20.95h0V265.78H132a12,12,0,0,1-10.58-17.55L227.47,47.45a21,21,0,0,0-8.74-28.32q-.4-.22-.84-.42l-6.26-3a21,21,0,0,0-27.43,9.07l-129.38,242a28.44,28.44,0,0,0-3.36,13.39h0a28.42,28.42,0,0,0,28.42,28.42H232.2v66.17A25.11,25.11,0,0,0,257.32,400h0a25.12,25.12,0,0,0,25.12-25.11h0V308.67H318a21.44,21.44,0,0,0,21.44-21.45h0A21.44,21.44,0,0,0,318,265.78Z"/><path class="cls-4" d="M984.54,265.78H949V161.14a21,21,0,0,0-21-20.95h-8.32a21,21,0,0,0-21,20.95h0V265.78H798.54A12,12,0,0,1,788,248.23L894.05,47.45a21,21,0,0,0-8.74-28.32q-.42-.22-.84-.42l-6.27-3a21,21,0,0,0-27.43,9.07l-129.38,242A28.43,28.43,0,0,0,718,280.25h0a28.41,28.41,0,0,0,28.41,28.42H898.77v66.17A25.12,25.12,0,0,0,923.89,400h0A25.12,25.12,0,0,0,949,374.84h0V308.67h35.53A21.45,21.45,0,0,0,1006,287.22h0a21.44,21.44,0,0,0-21.45-21.44Z"/><path class="cls-4" d="M526.89.5C440.94.5,379.24,55.64,379.24,184.3c0,145.81,61.7,184.41,147.65,184.41S678.21,326.43,678.21,184.3C678.21,32.36,612.83.5,526.89.5Zm.56,319.81c-59.52,0-90.62-34.92-90.62-135.92,0-89.11,32.37-136.1,91.9-136.1s91.89,30.87,91.89,136.1c0,98.45-33.64,135.92-93.17,135.92Z"/></g></g></svg>